<svg xmlns="http://www.w3.org/2000/svg" width="30" height="30" viewBox="0 0 30 30"><path fill="#FFF" d="M27.601 0H2.563C1.196 0 0 .985 0 2.336V27.43C0 28.789 1.196 30 2.563 30h25.03C28.969 30 30 28.781 30 27.43V2.336C30.008.985 28.969 0 27.601 0zM9.299 25.006H5.001V11.644h4.298v13.362zm-2-15.394h-.031c-1.375 0-2.266-1.023-2.266-2.305 0-1.305.914-2.305 2.321-2.305s2.265.992 2.297 2.305c0 1.281-.891 2.305-2.321 2.305zm17.708 15.394h-4.299v-7.307c0-1.75-.625-2.945-2.18-2.945-1.188 0-1.892.805-2.204 1.586-.117.281-.148.664-.148 1.055v7.611h-4.298V11.644h4.298v1.86c.625-.891 1.603-2.172 3.876-2.172 2.821 0 4.955 1.86 4.955 5.868v7.806z"/></svg>