<svg xmlns="http://www.w3.org/2000/svg" width="35" height="30" viewBox="0 0 35 30"><path d="M11.664 17.611l-.001 11.233c0 .213.018.433-.029.637-.1.435-.372.626-.82.459-.163-.062-.319-.142-.476-.22-3.092-1.542-6.177-3.097-9.278-4.62-.733-.359-1.062-.854-1.06-1.684C.019 15.927.011 8.438.011.949c0-.94.17-1.046 1.012-.625 3.353 1.673 6.699 3.357 10.061 5.011.457.224.592.495.59.985-.02 3.763-.01 7.527-.01 11.291zm12.275 5.908c-.138-.207-.248-.362-.348-.524-2.329-3.779-4.651-7.562-6.993-11.334-.213-.344-.205-.587.006-.926A1347.96 1347.96 0 0 0 22.915.484c.307-.503.585-.608 1.122-.336 3.444 1.745 6.9 3.464 10.355 5.187.337.168.62.276.322.757-3.55 5.737-7.082 11.484-10.62 17.228-.029.047-.07.089-.155.199zM34.997 7.842v.553l-.001 20.487c0 .193.018.394-.023.579-.095.432-.349.641-.808.479a2.917 2.917 0 0 1-.319-.141c-3.057-1.525-6.112-3.051-9.168-4.578-.117-.058-.225-.135-.374-.227L34.887 7.808l.11.034zm-22.224-.406l10.475 17.011c-.231-.083-.365-.115-.485-.175-3.212-1.604-6.422-3.212-9.636-4.812-.262-.131-.417-.258-.415-.598.015-3.705.009-7.411.011-11.116 0-.053.017-.108.05-.31z" fill-rule="evenodd" clip-rule="evenodd" fill="#FFF"/></svg>