<?xml version="1.0" encoding="utf-8"?>
<!-- Generator: Adobe Illustrator 22.0.0, SVG Export Plug-In . SVG Version: 6.00 Build 0)  -->
<svg version="1.1" id="Calque_1" xmlns="http://www.w3.org/2000/svg" xmlns:xlink="http://www.w3.org/1999/xlink" x="0px" y="0px"
	 width="100px" height="100px" viewBox="0 0 100 100" style="enable-background:new 0 0 100 100;" xml:space="preserve">
<style type="text/css">
	.st0{fill:#241F20;}
	.st1{fill:#FFFFFF;}
</style>
<g>
	<path class="st0" d="M100,50c0,27.614-22.385,50-49.999,50C22.386,100,0,77.614,0,50C0,22.386,22.386,0,50.001,0
		C77.615,0,100,22.386,100,50"/>
	<path class="st1" d="M97.007,50h-0.503c0,12.842-5.205,24.465-13.621,32.882c-8.418,8.416-20.04,13.62-32.883,13.62
		c-12.843,0-24.466-5.204-32.883-13.62C8.701,74.465,3.497,62.842,3.497,50c0-12.842,5.204-24.465,13.62-32.882
		C25.534,8.702,37.157,3.496,50,3.496c12.843,0,24.465,5.205,32.883,13.621C91.299,25.535,96.504,37.157,96.504,50H97.007h0.503
		C97.509,23.763,76.238,2.493,50,2.491C23.762,2.493,2.492,23.763,2.492,50c0,26.237,21.27,47.508,47.508,47.508
		S97.509,76.237,97.509,50H97.007z"/>
	<path class="st1" d="M10.196,45.729v-9.935h0.724l4.191,7.01l1.116,1.975h0.06c-0.02-0.482-0.041-0.965-0.06-1.447
		c-0.021-0.482-0.03-0.965-0.03-1.447v-6.09h0.663v9.935h-0.724l-4.191-7.01l-1.116-1.975h-0.06c0.02,0.482,0.039,0.953,0.06,1.409
		c0.019,0.458,0.03,0.928,0.03,1.41v6.166H10.196z"/>
	<path class="st1" d="M19.785,41.658h4.613c0-0.935-0.192-1.631-0.574-2.088c-0.382-0.457-0.898-0.685-1.553-0.685
		c-0.311,0-0.607,0.062-0.888,0.188c-0.282,0.126-0.536,0.31-0.762,0.551c-0.226,0.241-0.412,0.533-0.558,0.874
		C19.918,40.839,19.825,41.226,19.785,41.658 M22.453,45.91c-0.462,0-0.897-0.086-1.305-0.256c-0.407-0.171-0.762-0.419-1.062-0.747
		c-0.302-0.327-0.541-0.724-0.716-1.191c-0.177-0.467-0.264-0.997-0.264-1.59c0-0.593,0.087-1.126,0.264-1.598
		c0.175-0.472,0.411-0.872,0.708-1.199c0.296-0.327,0.634-0.578,1.011-0.754c0.377-0.176,0.765-0.263,1.168-0.263
		c0.864,0,1.543,0.291,2.035,0.874c0.491,0.583,0.738,1.407,0.738,2.472v0.271c0,0.09-0.009,0.181-0.03,0.271h-5.215
		c0.009,0.452,0.08,0.871,0.211,1.258s0.314,0.719,0.551,0.995c0.235,0.277,0.52,0.493,0.85,0.648
		c0.332,0.156,0.704,0.234,1.117,0.234c0.391,0,0.746-0.058,1.062-0.174c0.318-0.115,0.611-0.273,0.882-0.474l0.271,0.513
		c-0.291,0.171-0.611,0.332-0.958,0.482C23.425,45.834,22.985,45.91,22.453,45.91"/>
	<path class="st1" d="M26.989,38.493h0.663v7.236h-0.663V38.493z M27.336,36.744c-0.171,0-0.314-0.055-0.429-0.166
		c-0.116-0.111-0.174-0.251-0.174-0.422c0-0.191,0.058-0.339,0.174-0.444c0.116-0.106,0.258-0.159,0.429-0.159
		c0.171,0,0.314,0.053,0.43,0.159c0.116,0.106,0.174,0.253,0.174,0.444c0,0.171-0.058,0.312-0.174,0.422
		C27.649,36.688,27.507,36.744,27.336,36.744"/>
	<path class="st1" d="M31.331,45.91c-0.593,0-0.889-0.382-0.889-1.146V34.89h0.663v9.965c0,0.161,0.031,0.278,0.09,0.354
		c0.061,0.075,0.136,0.114,0.227,0.114h0.096l0.174-0.03l0.121,0.543l-0.211,0.052C31.532,45.902,31.442,45.91,31.331,45.91"/>
	<path class="st1" d="M38.477,39.879l-0.633,1.854h3.528l-0.633-1.854c-0.201-0.593-0.392-1.161-0.573-1.704
		c-0.181-0.543-0.358-1.121-0.529-1.734h-0.059c-0.171,0.613-0.347,1.191-0.528,1.734C38.869,38.719,38.677,39.286,38.477,39.879
		 M35.763,45.729l3.496-9.935h0.694l3.496,9.935h-0.723l-1.162-3.407h-3.934l-1.177,3.407H35.763z"/>
	<path class="st1" d="M47.763,45.322c0.362,0,0.698-0.08,1.01-0.241c0.311-0.161,0.578-0.387,0.799-0.678
		c0.221-0.291,0.394-0.64,0.52-1.047c0.126-0.408,0.189-0.857,0.189-1.35c0-0.442-0.042-0.854-0.128-1.236
		c-0.085-0.382-0.219-0.712-0.4-0.987c-0.181-0.276-0.417-0.492-0.708-0.648c-0.292-0.156-0.644-0.234-1.056-0.234
		c-0.362,0-0.737,0.104-1.123,0.31c-0.387,0.206-0.802,0.499-1.244,0.881v4.297c0.422,0.342,0.814,0.583,1.176,0.724
		C47.161,45.252,47.481,45.322,47.763,45.322 M44.959,49V38.492h0.573l0.06,0.904h0.045c0.352-0.281,0.736-0.533,1.153-0.754
		c0.417-0.221,0.852-0.332,1.305-0.332c0.965,0,1.688,0.335,2.171,1.003c0.482,0.668,0.724,1.565,0.724,2.69
		c0,0.613-0.085,1.161-0.256,1.643c-0.171,0.482-0.404,0.892-0.701,1.228c-0.296,0.338-0.639,0.594-1.026,0.77
		c-0.386,0.175-0.791,0.263-1.213,0.263c-0.342,0-0.693-0.077-1.055-0.234c-0.362-0.155-0.734-0.374-1.116-0.655V49H44.959z"/>
	<path class="st1" d="M55.964,45.322c0.362,0,0.698-0.08,1.01-0.241c0.311-0.161,0.578-0.387,0.799-0.678
		c0.221-0.291,0.394-0.64,0.52-1.047c0.126-0.408,0.189-0.857,0.189-1.35c0-0.442-0.042-0.854-0.128-1.236
		c-0.085-0.382-0.219-0.712-0.399-0.987c-0.182-0.276-0.418-0.492-0.71-0.648c-0.291-0.156-0.643-0.234-1.055-0.234
		c-0.362,0-0.737,0.104-1.124,0.31c-0.386,0.206-0.801,0.499-1.243,0.881v4.297c0.422,0.342,0.814,0.583,1.176,0.724
		C55.361,45.252,55.682,45.322,55.964,45.322 M53.16,49V38.492h0.573l0.06,0.904h0.045c0.352-0.281,0.736-0.533,1.153-0.754
		c0.417-0.221,0.852-0.332,1.305-0.332c0.965,0,1.688,0.335,2.171,1.003c0.482,0.668,0.724,1.565,0.724,2.69
		c0,0.613-0.085,1.161-0.256,1.643c-0.171,0.482-0.404,0.892-0.701,1.228c-0.296,0.338-0.639,0.594-1.026,0.77
		c-0.386,0.175-0.791,0.263-1.213,0.263c-0.342,0-0.693-0.077-1.054-0.234c-0.363-0.155-0.735-0.374-1.117-0.655V49H53.16z"/>
	<path class="st1" d="M62.249,45.91c-0.593,0-0.889-0.382-0.889-1.146V34.89h0.663v9.965c0,0.161,0.031,0.278,0.09,0.354
		c0.061,0.075,0.136,0.114,0.227,0.114h0.096l0.174-0.03l0.121,0.543l-0.21,0.052C62.45,45.902,62.36,45.91,62.249,45.91"/>
	<path class="st1" d="M65.009,41.658h4.613c0-0.935-0.192-1.631-0.574-2.088c-0.382-0.457-0.898-0.685-1.553-0.685
		c-0.311,0-0.607,0.062-0.888,0.188c-0.282,0.126-0.536,0.31-0.762,0.551c-0.226,0.241-0.412,0.533-0.558,0.874
		C65.143,40.839,65.05,41.226,65.009,41.658 M67.678,45.91c-0.462,0-0.897-0.086-1.305-0.256c-0.407-0.171-0.762-0.419-1.062-0.747
		c-0.302-0.327-0.541-0.724-0.716-1.191c-0.177-0.467-0.264-0.997-0.264-1.59c0-0.593,0.087-1.126,0.264-1.598
		c0.175-0.472,0.411-0.872,0.708-1.199c0.296-0.327,0.634-0.578,1.011-0.754c0.377-0.176,0.765-0.263,1.168-0.263
		c0.864,0,1.543,0.291,2.035,0.874c0.491,0.583,0.738,1.407,0.738,2.472v0.271c0,0.09-0.009,0.181-0.03,0.271h-5.215
		c0.01,0.452,0.08,0.871,0.211,1.258c0.131,0.387,0.314,0.719,0.55,0.995c0.236,0.277,0.521,0.493,0.851,0.648
		c0.332,0.156,0.704,0.234,1.117,0.234c0.391,0,0.746-0.058,1.062-0.174c0.318-0.115,0.611-0.273,0.882-0.474l0.271,0.513
		c-0.291,0.171-0.611,0.332-0.958,0.482C68.649,45.834,68.209,45.91,67.678,45.91"/>
	<path class="st1" d="M74.038,45.91c-0.352,0-0.643-0.053-0.874-0.159c-0.231-0.106-0.417-0.253-0.558-0.444
		c-0.14-0.191-0.238-0.422-0.293-0.693c-0.055-0.271-0.083-0.568-0.083-0.889v-4.658h-1.131v-0.513l1.146-0.06l0.091-2.096h0.572
		v2.096h2.095v0.573h-2.095v4.719c0,0.231,0.018,0.439,0.053,0.625s0.098,0.347,0.188,0.482c0.09,0.136,0.213,0.241,0.369,0.317
		c0.157,0.075,0.36,0.114,0.611,0.114c0.142,0,0.294-0.023,0.46-0.068c0.166-0.045,0.314-0.098,0.444-0.158l0.181,0.543
		c-0.211,0.08-0.422,0.146-0.633,0.196C74.37,45.885,74.189,45.91,74.038,45.91"/>
	<path class="st1" d="M79.239,45.322c0.362,0,0.7-0.078,1.018-0.234c0.316-0.156,0.588-0.374,0.813-0.655
		c0.227-0.281,0.405-0.618,0.536-1.01c0.131-0.392,0.196-0.824,0.196-1.296c0-0.482-0.065-0.92-0.196-1.312
		c-0.131-0.392-0.309-0.732-0.536-1.017c-0.225-0.287-0.497-0.508-0.813-0.664c-0.318-0.155-0.656-0.233-1.018-0.233
		c-0.362,0-0.698,0.078-1.01,0.233c-0.312,0.157-0.58,0.377-0.807,0.664c-0.225,0.285-0.404,0.625-0.535,1.017
		c-0.131,0.392-0.196,0.829-0.196,1.312c0,0.472,0.065,0.904,0.196,1.296c0.131,0.392,0.31,0.729,0.535,1.01
		c0.227,0.281,0.495,0.5,0.807,0.655C78.541,45.243,78.877,45.322,79.239,45.322 M79.239,45.91c-0.432,0-0.844-0.086-1.235-0.256
		c-0.393-0.171-0.738-0.417-1.034-0.739c-0.296-0.322-0.532-0.717-0.708-1.183c-0.177-0.468-0.264-1.003-0.264-1.606
		c0-0.603,0.087-1.144,0.264-1.621c0.176-0.477,0.411-0.876,0.708-1.198c0.296-0.322,0.641-0.568,1.034-0.739
		c0.391-0.171,0.803-0.256,1.235-0.256c0.432,0,0.847,0.085,1.243,0.256c0.398,0.171,0.745,0.417,1.04,0.739
		c0.296,0.322,0.534,0.721,0.71,1.198c0.175,0.477,0.263,1.018,0.263,1.621c0,0.603-0.088,1.138-0.263,1.606
		c-0.176,0.466-0.413,0.861-0.71,1.183c-0.295,0.322-0.642,0.568-1.04,0.739C80.086,45.823,79.671,45.91,79.239,45.91"/>
	<path class="st1" d="M84.667,45.729v-7.236h0.573l0.06,1.116h0.045c0.372-0.372,0.754-0.681,1.146-0.928
		c0.392-0.245,0.839-0.369,1.342-0.369c0.754,0,1.307,0.226,1.658,0.678c0.352,0.452,0.528,1.151,0.528,2.095v4.643h-0.663v-4.553
		c0-0.774-0.128-1.344-0.385-1.711c-0.256-0.368-0.68-0.551-1.273-0.551c-0.432,0-0.824,0.114-1.176,0.34
		c-0.352,0.226-0.749,0.565-1.191,1.017v5.457H84.667z"/>
	<polygon class="st1" points="20.591,61.809 20.591,51.95 26.546,51.95 26.546,53.427 22.34,53.427 22.34,56.216 25.928,56.216 
		25.928,57.693 22.34,57.693 22.34,61.809 	"/>
	<path class="st1" d="M27.826,61.809v-7.402h1.432l0.121,1.312h0.06c0.261-0.482,0.579-0.852,0.95-1.109
		c0.372-0.255,0.754-0.384,1.147-0.384c0.351,0,0.632,0.05,0.843,0.151l-0.302,1.508c-0.13-0.04-0.25-0.07-0.362-0.09
		c-0.111-0.02-0.246-0.03-0.407-0.03c-0.291,0-0.598,0.114-0.92,0.339c-0.321,0.226-0.598,0.621-0.828,1.184v4.523H27.826z"/>
	<path class="st1" d="M36.33,60.573c0.543,0,0.97-0.224,1.28-0.671c0.313-0.447,0.467-1.042,0.467-1.786
		c0-0.754-0.155-1.355-0.467-1.802c-0.311-0.446-0.738-0.67-1.28-0.67c-0.543,0-0.968,0.224-1.274,0.67
		c-0.307,0.447-0.46,1.048-0.46,1.802c0,0.744,0.154,1.339,0.46,1.786C35.362,60.349,35.787,60.573,36.33,60.573 M36.33,61.99
		c-0.462,0-0.905-0.086-1.327-0.256c-0.422-0.171-0.797-0.422-1.124-0.754c-0.327-0.332-0.585-0.739-0.776-1.221
		c-0.191-0.482-0.286-1.03-0.286-1.643c0-0.613,0.095-1.161,0.286-1.643c0.191-0.482,0.449-0.889,0.776-1.221
		c0.327-0.332,0.701-0.586,1.124-0.762c0.422-0.176,0.864-0.263,1.327-0.263c0.462,0,0.907,0.087,1.334,0.263
		c0.427,0.176,0.801,0.43,1.123,0.762c0.323,0.332,0.581,0.739,0.777,1.221c0.196,0.482,0.294,1.03,0.294,1.643
		c0,0.613-0.098,1.161-0.294,1.643c-0.196,0.482-0.454,0.889-0.777,1.221c-0.322,0.332-0.695,0.583-1.123,0.754
		C37.236,61.904,36.792,61.99,36.33,61.99"/>
	<path class="st1" d="M41.576,61.809v-7.402h1.432l0.121,0.995h0.06c0.333-0.322,0.691-0.598,1.078-0.829
		c0.386-0.231,0.837-0.347,1.349-0.347c0.795,0,1.373,0.254,1.734,0.761c0.362,0.509,0.543,1.234,0.543,2.179v4.643H46.16v-4.417
		c0-0.613-0.09-1.045-0.272-1.297c-0.181-0.251-0.477-0.377-0.889-0.377c-0.322,0-0.605,0.078-0.851,0.233
		c-0.247,0.157-0.526,0.385-0.836,0.686v5.171H41.576z"/>
	<path class="st1" d="M52.626,61.99c-0.433,0-0.797-0.066-1.093-0.196c-0.296-0.131-0.538-0.315-0.724-0.551
		s-0.322-0.518-0.407-0.844c-0.085-0.327-0.129-0.69-0.129-1.092v-3.528h-1.055v-1.296l1.147-0.075l0.211-2.02h1.446v2.02h1.884
		v1.372h-1.884v3.528c0,0.864,0.347,1.297,1.041,1.297c0.131,0,0.263-0.015,0.399-0.045c0.136-0.03,0.259-0.07,0.369-0.121
		l0.303,1.281c-0.201,0.07-0.43,0.133-0.686,0.188C53.191,61.962,52.916,61.99,52.626,61.99"/>
	<path class="st1" d="M60.374,60.392h0.769c1.005,0,1.776-0.288,2.315-0.866c0.537-0.579,0.806-1.475,0.806-2.691
		c0-1.206-0.271-2.085-0.814-2.638c-0.543-0.553-1.312-0.829-2.307-0.829h-0.769V60.392z M58.626,61.809V51.95h2.638
		c1.508,0,2.683,0.407,3.528,1.221s1.266,2.035,1.266,3.663c0,0.814-0.109,1.533-0.325,2.156c-0.216,0.623-0.527,1.144-0.935,1.561
		c-0.407,0.417-0.9,0.731-1.476,0.942c-0.578,0.211-1.235,0.317-1.968,0.317H58.626z"/>
	<path class="st1" d="M69.088,57.407h3.286c0-0.573-0.123-1.023-0.37-1.35c-0.246-0.327-0.626-0.489-1.138-0.489
		c-0.443,0-0.83,0.156-1.162,0.467C69.374,56.347,69.168,56.804,69.088,57.407 M71.063,61.99c-0.513,0-0.99-0.088-1.432-0.264
		c-0.442-0.176-0.829-0.429-1.161-0.761c-0.332-0.332-0.591-0.737-0.777-1.214c-0.186-0.477-0.278-1.022-0.278-1.635
		c0-0.603,0.095-1.146,0.286-1.628c0.191-0.482,0.445-0.889,0.761-1.221c0.318-0.332,0.681-0.588,1.093-0.769
		c0.412-0.181,0.834-0.271,1.266-0.271c0.503,0,0.945,0.085,1.327,0.256c0.382,0.171,0.7,0.412,0.957,0.724
		c0.256,0.312,0.449,0.683,0.581,1.116c0.13,0.432,0.196,0.904,0.196,1.417c0,0.171-0.007,0.332-0.023,0.482
		c-0.015,0.151-0.032,0.271-0.053,0.362h-4.702c0.08,0.663,0.314,1.173,0.7,1.53c0.387,0.357,0.882,0.536,1.485,0.536
		c0.322,0,0.62-0.047,0.896-0.144c0.277-0.096,0.551-0.228,0.822-0.399l0.588,1.085c-0.352,0.231-0.745,0.422-1.176,0.573
		C71.987,61.915,71.535,61.99,71.063,61.99"/>
	<path class="st1" d="M77.198,61.809l-2.578-7.402h1.764l1.176,3.844c0.101,0.362,0.203,0.729,0.309,1.101
		c0.107,0.372,0.209,0.749,0.31,1.131h0.06c0.111-0.382,0.216-0.759,0.317-1.131c0.101-0.372,0.206-0.739,0.317-1.101l1.176-3.844
		h1.673l-2.518,7.402H77.198z"/>
</g>
</svg>
